<?xml version="1.0" encoding="UTF-8"?>
<svg xmlns="http://www.w3.org/2000/svg" xmlns:xlink="http://www.w3.org/1999/xlink" width="170.079pt" height="170.079pt" viewBox="0 0 170.079 170.079" version="1.1">
<defs>
<clipPath id="clip1">
  <path d="M 0 149 L 22 149 L 22 170.078125 L 0 170.078125 Z M 0 149 "/>
</clipPath>
<clipPath id="clip2">
  <path d="M 63 149 L 107 149 L 107 170.078125 L 63 170.078125 Z M 63 149 "/>
</clipPath>
<clipPath id="clip3">
  <path d="M 148 149 L 170.078125 149 L 170.078125 170.078125 L 148 170.078125 Z M 148 149 "/>
</clipPath>
<clipPath id="clip4">
  <path d="M 148 100 L 170.078125 100 L 170.078125 127 L 148 127 Z M 148 100 "/>
</clipPath>
<clipPath id="clip5">
  <path d="M 148 51 L 170.078125 51 L 170.078125 78 L 148 78 Z M 148 51 "/>
</clipPath>
<clipPath id="clip6">
  <path d="M 148 2 L 170.078125 2 L 170.078125 29 L 148 29 Z M 148 2 "/>
</clipPath>
</defs>
<g id="surface1">
<g clip-path="url(#clip1)" clip-rule="nonzero">
<path style="fill:none;stroke-width:1.19553;stroke-linecap:butt;stroke-linejoin:round;stroke:rgb(100%,100%,100%);stroke-opacity:1;stroke-miterlimit:10;" d="M 148.821187 -61.371813 L 155.907125 -49.098375 L 148.821187 -36.824938 L 155.907125 -49.098375 L 184.254781 -49.098375 L 191.340719 -36.824938 L 184.254781 -49.098375 L 191.340719 -61.371813 " transform="matrix(1,0,0,-1,-170.079,113.386)"/>
</g>
<path style="fill:none;stroke-width:1.19553;stroke-linecap:butt;stroke-linejoin:round;stroke:rgb(94.119263%,19.607544%,0%);stroke-opacity:1;stroke-miterlimit:10;" d="M 184.254781 -49.098375 L 189.92275 -43.430406 " transform="matrix(1,0,0,-1,-170.079,113.386)"/>
<path style=" stroke:none;fill-rule:nonzero;fill:rgb(79.998779%,79.998779%,100%);fill-opacity:1;" d="M 18.871094 162.484375 C 18.871094 159.890625 16.769531 157.789062 14.175781 157.789062 C 11.582031 157.789062 9.480469 159.890625 9.480469 162.484375 C 9.480469 165.078125 11.582031 167.179688 14.175781 167.179688 C 16.769531 167.179688 18.871094 165.078125 18.871094 162.484375 Z M 18.871094 162.484375 "/>
<path style="fill:none;stroke-width:1.19553;stroke-linecap:butt;stroke-linejoin:round;stroke:rgb(100%,100%,100%);stroke-opacity:1;stroke-miterlimit:10;" d="M 148.821187 -12.274156 L 155.907125 -0.00071875 L 148.821187 12.272719 L 155.907125 -0.00071875 L 184.254781 -0.00071875 L 191.340719 12.272719 L 184.254781 -0.00071875 L 191.340719 -12.274156 " transform="matrix(1,0,0,-1,-170.079,113.386)"/>
<path style="fill:none;stroke-width:1.19553;stroke-linecap:butt;stroke-linejoin:round;stroke:rgb(94.119263%,19.607544%,0%);stroke-opacity:1;stroke-miterlimit:10;" d="M 184.254781 -0.00071875 L 189.92275 5.671156 " transform="matrix(1,0,0,-1,-170.079,113.386)"/>
<path style=" stroke:none;fill-rule:nonzero;fill:rgb(79.998779%,79.998779%,100%);fill-opacity:1;" d="M 18.871094 113.386719 C 18.871094 110.792969 16.769531 108.691406 14.175781 108.691406 C 11.582031 108.691406 9.480469 110.792969 9.480469 113.386719 C 9.480469 115.980469 11.582031 118.082031 14.175781 118.082031 C 16.769531 118.082031 18.871094 115.980469 18.871094 113.386719 Z M 18.871094 113.386719 "/>
<path style="fill:none;stroke-width:1.19553;stroke-linecap:butt;stroke-linejoin:round;stroke:rgb(100%,100%,100%);stroke-opacity:1;stroke-miterlimit:10;" d="M 191.340719 -36.824938 L 198.426656 -24.547594 L 191.340719 -12.274156 L 198.426656 -24.547594 L 226.774312 -24.547594 L 233.86025 -12.274156 L 226.774312 -24.547594 L 233.86025 -36.824938 " transform="matrix(1,0,0,-1,-170.079,113.386)"/>
<path style="fill:none;stroke-width:1.19553;stroke-linecap:butt;stroke-linejoin:round;stroke:rgb(94.119263%,19.607544%,0%);stroke-opacity:1;stroke-miterlimit:10;" d="M 198.426656 -24.547594 L 204.098531 -18.879625 " transform="matrix(1,0,0,-1,-170.079,113.386)"/>
<path style="fill:none;stroke-width:1.19553;stroke-linecap:butt;stroke-linejoin:round;stroke:rgb(94.119263%,19.607544%,0%);stroke-opacity:1;stroke-miterlimit:10;" d="M 226.774312 -24.547594 L 232.442281 -18.879625 " transform="matrix(1,0,0,-1,-170.079,113.386)"/>
<path style=" stroke:none;fill-rule:nonzero;fill:rgb(79.998779%,79.998779%,100%);fill-opacity:1;" d="M 33.046875 137.933594 C 33.046875 135.339844 30.941406 133.238281 28.347656 133.238281 C 25.753906 133.238281 23.652344 135.339844 23.652344 137.933594 C 23.652344 140.527344 25.753906 142.632812 28.347656 142.632812 C 30.941406 142.632812 33.046875 140.527344 33.046875 137.933594 Z M 33.046875 137.933594 "/>
<path style=" stroke:none;fill-rule:nonzero;fill:rgb(79.998779%,79.998779%,100%);fill-opacity:1;" d="M 61.390625 137.933594 C 61.390625 135.339844 59.289062 133.238281 56.695312 133.238281 C 54.101562 133.238281 52 135.339844 52 137.933594 C 52 140.527344 54.101562 142.632812 56.695312 142.632812 C 59.289062 142.632812 61.390625 140.527344 61.390625 137.933594 Z M 61.390625 137.933594 "/>
<g clip-path="url(#clip2)" clip-rule="nonzero">
<path style="fill:none;stroke-width:1.19553;stroke-linecap:butt;stroke-linejoin:round;stroke:rgb(100%,100%,100%);stroke-opacity:1;stroke-miterlimit:10;" d="M 233.86025 -61.371813 L 240.946187 -49.098375 L 233.86025 -36.824938 L 240.946187 -49.098375 L 269.293844 -49.098375 L 276.379781 -36.824938 L 269.293844 -49.098375 L 276.379781 -61.371813 " transform="matrix(1,0,0,-1,-170.079,113.386)"/>
</g>
<path style="fill:none;stroke-width:1.19553;stroke-linecap:butt;stroke-linejoin:round;stroke:rgb(94.119263%,19.607544%,0%);stroke-opacity:1;stroke-miterlimit:10;" d="M 240.946187 -49.098375 L 246.618062 -43.430406 " transform="matrix(1,0,0,-1,-170.079,113.386)"/>
<path style="fill:none;stroke-width:1.19553;stroke-linecap:butt;stroke-linejoin:round;stroke:rgb(94.119263%,19.607544%,0%);stroke-opacity:1;stroke-miterlimit:10;" d="M 269.293844 -49.098375 L 274.965719 -43.430406 " transform="matrix(1,0,0,-1,-170.079,113.386)"/>
<path style=" stroke:none;fill-rule:nonzero;fill:rgb(79.998779%,79.998779%,100%);fill-opacity:1;" d="M 75.566406 162.484375 C 75.566406 159.890625 73.460938 157.789062 70.867188 157.789062 C 68.273438 157.789062 66.171875 159.890625 66.171875 162.484375 C 66.171875 165.078125 68.273438 167.179688 70.867188 167.179688 C 73.460938 167.179688 75.566406 165.078125 75.566406 162.484375 Z M 75.566406 162.484375 "/>
<path style=" stroke:none;fill-rule:nonzero;fill:rgb(79.998779%,79.998779%,100%);fill-opacity:1;" d="M 103.910156 162.484375 C 103.910156 159.890625 101.808594 157.789062 99.214844 157.789062 C 96.621094 157.789062 94.519531 159.890625 94.519531 162.484375 C 94.519531 165.078125 96.621094 167.179688 99.214844 167.179688 C 101.808594 167.179688 103.910156 165.078125 103.910156 162.484375 Z M 103.910156 162.484375 "/>
<path style="fill:none;stroke-width:1.19553;stroke-linecap:butt;stroke-linejoin:round;stroke:rgb(100%,100%,100%);stroke-opacity:1;stroke-miterlimit:10;" d="M 148.821187 36.8235 L 155.907125 49.096937 L 148.821187 61.374281 L 155.907125 49.096937 L 184.254781 49.096937 L 191.340719 61.374281 L 184.254781 49.096937 L 191.340719 36.8235 " transform="matrix(1,0,0,-1,-170.079,113.386)"/>
<path style="fill:none;stroke-width:1.19553;stroke-linecap:butt;stroke-linejoin:round;stroke:rgb(94.119263%,19.607544%,0%);stroke-opacity:1;stroke-miterlimit:10;" d="M 184.254781 49.096937 L 189.92275 54.768812 " transform="matrix(1,0,0,-1,-170.079,113.386)"/>
<path style=" stroke:none;fill-rule:nonzero;fill:rgb(79.998779%,79.998779%,100%);fill-opacity:1;" d="M 18.871094 64.289062 C 18.871094 61.695312 16.769531 59.589844 14.175781 59.589844 C 11.582031 59.589844 9.480469 61.695312 9.480469 64.289062 C 9.480469 66.882812 11.582031 68.984375 14.175781 68.984375 C 16.769531 68.984375 18.871094 66.882812 18.871094 64.289062 Z M 18.871094 64.289062 "/>
<path style="fill:none;stroke-width:1.19553;stroke-linecap:butt;stroke-linejoin:round;stroke:rgb(100%,100%,100%);stroke-opacity:1;stroke-miterlimit:10;" d="M 191.340719 12.272719 L 198.426656 24.550062 L 191.340719 36.8235 L 198.426656 24.550062 L 226.774312 24.550062 L 233.86025 36.8235 L 226.774312 24.550062 L 233.86025 12.272719 " transform="matrix(1,0,0,-1,-170.079,113.386)"/>
<path style="fill:none;stroke-width:1.19553;stroke-linecap:butt;stroke-linejoin:round;stroke:rgb(94.119263%,19.607544%,0%);stroke-opacity:1;stroke-miterlimit:10;" d="M 198.426656 24.550062 L 204.098531 30.218031 " transform="matrix(1,0,0,-1,-170.079,113.386)"/>
<path style="fill:none;stroke-width:1.19553;stroke-linecap:butt;stroke-linejoin:round;stroke:rgb(94.119263%,19.607544%,0%);stroke-opacity:1;stroke-miterlimit:10;" d="M 226.774312 24.550062 L 232.442281 30.218031 " transform="matrix(1,0,0,-1,-170.079,113.386)"/>
<path style=" stroke:none;fill-rule:nonzero;fill:rgb(79.998779%,79.998779%,100%);fill-opacity:1;" d="M 33.046875 88.835938 C 33.046875 86.242188 30.941406 84.140625 28.347656 84.140625 C 25.753906 84.140625 23.652344 86.242188 23.652344 88.835938 C 23.652344 91.429688 25.753906 93.535156 28.347656 93.535156 C 30.941406 93.535156 33.046875 91.429688 33.046875 88.835938 Z M 33.046875 88.835938 "/>
<path style=" stroke:none;fill-rule:nonzero;fill:rgb(79.998779%,79.998779%,100%);fill-opacity:1;" d="M 61.390625 88.835938 C 61.390625 86.242188 59.289062 84.140625 56.695312 84.140625 C 54.101562 84.140625 52 86.242188 52 88.835938 C 52 91.429688 54.101562 93.535156 56.695312 93.535156 C 59.289062 93.535156 61.390625 91.429688 61.390625 88.835938 Z M 61.390625 88.835938 "/>
<path style="fill:none;stroke-width:1.19553;stroke-linecap:butt;stroke-linejoin:round;stroke:rgb(100%,100%,100%);stroke-opacity:1;stroke-miterlimit:10;" d="M 233.86025 -12.274156 L 240.946187 -0.00071875 L 233.86025 12.272719 L 240.946187 -0.00071875 L 269.293844 -0.00071875 L 276.379781 12.272719 L 269.293844 -0.00071875 L 276.379781 -12.274156 " transform="matrix(1,0,0,-1,-170.079,113.386)"/>
<path style="fill:none;stroke-width:1.19553;stroke-linecap:butt;stroke-linejoin:round;stroke:rgb(94.119263%,19.607544%,0%);stroke-opacity:1;stroke-miterlimit:10;" d="M 240.946187 -0.00071875 L 246.618062 5.671156 " transform="matrix(1,0,0,-1,-170.079,113.386)"/>
<path style="fill:none;stroke-width:1.19553;stroke-linecap:butt;stroke-linejoin:round;stroke:rgb(94.119263%,19.607544%,0%);stroke-opacity:1;stroke-miterlimit:10;" d="M 269.293844 -0.00071875 L 274.965719 5.671156 " transform="matrix(1,0,0,-1,-170.079,113.386)"/>
<path style=" stroke:none;fill-rule:nonzero;fill:rgb(79.998779%,79.998779%,100%);fill-opacity:1;" d="M 75.566406 113.386719 C 75.566406 110.792969 73.460938 108.691406 70.867188 108.691406 C 68.273438 108.691406 66.171875 110.792969 66.171875 113.386719 C 66.171875 115.980469 68.273438 118.082031 70.867188 118.082031 C 73.460938 118.082031 75.566406 115.980469 75.566406 113.386719 Z M 75.566406 113.386719 "/>
<path style=" stroke:none;fill-rule:nonzero;fill:rgb(79.998779%,79.998779%,100%);fill-opacity:1;" d="M 103.910156 113.386719 C 103.910156 110.792969 101.808594 108.691406 99.214844 108.691406 C 96.621094 108.691406 94.519531 110.792969 94.519531 113.386719 C 94.519531 115.980469 96.621094 118.082031 99.214844 118.082031 C 101.808594 118.082031 103.910156 115.980469 103.910156 113.386719 Z M 103.910156 113.386719 "/>
<path style="fill:none;stroke-width:1.19553;stroke-linecap:butt;stroke-linejoin:round;stroke:rgb(100%,100%,100%);stroke-opacity:1;stroke-miterlimit:10;" d="M 276.379781 -36.824938 L 283.469625 -24.547594 L 276.379781 -12.274156 L 283.469625 -24.547594 L 311.813375 -24.547594 L 318.903219 -12.274156 L 311.813375 -24.547594 L 318.903219 -36.824938 " transform="matrix(1,0,0,-1,-170.079,113.386)"/>
<path style="fill:none;stroke-width:1.19553;stroke-linecap:butt;stroke-linejoin:round;stroke:rgb(94.119263%,19.607544%,0%);stroke-opacity:1;stroke-miterlimit:10;" d="M 283.469625 -24.547594 L 289.137594 -18.879625 " transform="matrix(1,0,0,-1,-170.079,113.386)"/>
<path style="fill:none;stroke-width:1.19553;stroke-linecap:butt;stroke-linejoin:round;stroke:rgb(94.119263%,19.607544%,0%);stroke-opacity:1;stroke-miterlimit:10;" d="M 311.813375 -24.547594 L 317.48525 -18.879625 " transform="matrix(1,0,0,-1,-170.079,113.386)"/>
<path style=" stroke:none;fill-rule:nonzero;fill:rgb(79.998779%,79.998779%,100%);fill-opacity:1;" d="M 118.085938 137.933594 C 118.085938 135.339844 115.984375 133.238281 113.390625 133.238281 C 110.796875 133.238281 108.691406 135.339844 108.691406 137.933594 C 108.691406 140.527344 110.796875 142.632812 113.390625 142.632812 C 115.984375 142.632812 118.085938 140.527344 118.085938 137.933594 Z M 118.085938 137.933594 "/>
<path style=" stroke:none;fill-rule:nonzero;fill:rgb(79.998779%,79.998779%,100%);fill-opacity:1;" d="M 146.433594 137.933594 C 146.433594 135.339844 144.328125 133.238281 141.734375 133.238281 C 139.140625 133.238281 137.039062 135.339844 137.039062 137.933594 C 137.039062 140.527344 139.140625 142.632812 141.734375 142.632812 C 144.328125 142.632812 146.433594 140.527344 146.433594 137.933594 Z M 146.433594 137.933594 "/>
<g clip-path="url(#clip3)" clip-rule="nonzero">
<path style="fill:none;stroke-width:1.19553;stroke-linecap:butt;stroke-linejoin:round;stroke:rgb(100%,100%,100%);stroke-opacity:1;stroke-miterlimit:10;" d="M 318.903219 -61.371813 L 325.989156 -49.098375 L 318.903219 -36.824938 L 325.989156 -49.098375 L 354.336812 -49.098375 L 361.42275 -36.824938 L 354.336812 -49.098375 L 361.42275 -61.371813 " transform="matrix(1,0,0,-1,-170.079,113.386)"/>
</g>
<path style="fill:none;stroke-width:1.19553;stroke-linecap:butt;stroke-linejoin:round;stroke:rgb(94.119263%,19.607544%,0%);stroke-opacity:1;stroke-miterlimit:10;" d="M 325.989156 -49.098375 L 331.657125 -43.430406 " transform="matrix(1,0,0,-1,-170.079,113.386)"/>
<path style=" stroke:none;fill-rule:nonzero;fill:rgb(79.998779%,79.998779%,100%);fill-opacity:1;" d="M 160.605469 162.484375 C 160.605469 159.890625 158.503906 157.789062 155.910156 157.789062 C 153.316406 157.789062 151.214844 159.890625 151.214844 162.484375 C 151.214844 165.078125 153.316406 167.179688 155.910156 167.179688 C 158.503906 167.179688 160.605469 165.078125 160.605469 162.484375 Z M 160.605469 162.484375 "/>
<path style="fill:none;stroke-width:1.19553;stroke-linecap:butt;stroke-linejoin:round;stroke:rgb(100%,100%,100%);stroke-opacity:1;stroke-miterlimit:10;" d="M 148.821187 85.921156 L 155.907125 98.194594 L 148.821187 110.471937 L 155.907125 98.194594 L 184.254781 98.194594 L 191.340719 110.471937 L 184.254781 98.194594 L 191.340719 85.921156 " transform="matrix(1,0,0,-1,-170.079,113.386)"/>
<path style="fill:none;stroke-width:1.19553;stroke-linecap:butt;stroke-linejoin:round;stroke:rgb(94.119263%,19.607544%,0%);stroke-opacity:1;stroke-miterlimit:10;" d="M 184.254781 98.194594 L 189.92275 103.866469 " transform="matrix(1,0,0,-1,-170.079,113.386)"/>
<path style=" stroke:none;fill-rule:nonzero;fill:rgb(79.998779%,79.998779%,100%);fill-opacity:1;" d="M 18.871094 15.191406 C 18.871094 12.597656 16.769531 10.492188 14.175781 10.492188 C 11.582031 10.492188 9.480469 12.597656 9.480469 15.191406 C 9.480469 17.785156 11.582031 19.886719 14.175781 19.886719 C 16.769531 19.886719 18.871094 17.785156 18.871094 15.191406 Z M 18.871094 15.191406 "/>
<path style="fill:none;stroke-width:1.19553;stroke-linecap:butt;stroke-linejoin:round;stroke:rgb(100%,100%,100%);stroke-opacity:1;stroke-miterlimit:10;" d="M 191.340719 61.374281 L 198.426656 73.647719 L 191.340719 85.921156 L 198.426656 73.647719 L 226.774312 73.647719 L 233.86025 85.921156 L 226.774312 73.647719 L 233.86025 61.374281 " transform="matrix(1,0,0,-1,-170.079,113.386)"/>
<path style="fill:none;stroke-width:1.19553;stroke-linecap:butt;stroke-linejoin:round;stroke:rgb(94.119263%,19.607544%,0%);stroke-opacity:1;stroke-miterlimit:10;" d="M 198.426656 73.647719 L 204.098531 79.315687 " transform="matrix(1,0,0,-1,-170.079,113.386)"/>
<path style="fill:none;stroke-width:1.19553;stroke-linecap:butt;stroke-linejoin:round;stroke:rgb(94.119263%,19.607544%,0%);stroke-opacity:1;stroke-miterlimit:10;" d="M 226.774312 73.647719 L 232.442281 79.315687 " transform="matrix(1,0,0,-1,-170.079,113.386)"/>
<path style=" stroke:none;fill-rule:nonzero;fill:rgb(79.998779%,79.998779%,100%);fill-opacity:1;" d="M 33.046875 39.738281 C 33.046875 37.144531 30.941406 35.042969 28.347656 35.042969 C 25.753906 35.042969 23.652344 37.144531 23.652344 39.738281 C 23.652344 42.332031 25.753906 44.433594 28.347656 44.433594 C 30.941406 44.433594 33.046875 42.332031 33.046875 39.738281 Z M 33.046875 39.738281 "/>
<path style=" stroke:none;fill-rule:nonzero;fill:rgb(79.998779%,79.998779%,100%);fill-opacity:1;" d="M 61.390625 39.738281 C 61.390625 37.144531 59.289062 35.042969 56.695312 35.042969 C 54.101562 35.042969 52 37.144531 52 39.738281 C 52 42.332031 54.101562 44.433594 56.695312 44.433594 C 59.289062 44.433594 61.390625 42.332031 61.390625 39.738281 Z M 61.390625 39.738281 "/>
<path style="fill:none;stroke-width:1.19553;stroke-linecap:butt;stroke-linejoin:round;stroke:rgb(100%,100%,100%);stroke-opacity:1;stroke-miterlimit:10;" d="M 233.86025 36.8235 L 240.946187 49.096937 L 233.86025 61.374281 L 240.946187 49.096937 L 269.293844 49.096937 L 276.379781 61.374281 L 269.293844 49.096937 L 276.379781 36.8235 " transform="matrix(1,0,0,-1,-170.079,113.386)"/>
<path style="fill:none;stroke-width:1.19553;stroke-linecap:butt;stroke-linejoin:round;stroke:rgb(94.119263%,19.607544%,0%);stroke-opacity:1;stroke-miterlimit:10;" d="M 240.946187 49.096937 L 246.618062 54.768812 " transform="matrix(1,0,0,-1,-170.079,113.386)"/>
<path style="fill:none;stroke-width:1.19553;stroke-linecap:butt;stroke-linejoin:round;stroke:rgb(94.119263%,19.607544%,0%);stroke-opacity:1;stroke-miterlimit:10;" d="M 269.293844 49.096937 L 274.965719 54.768812 " transform="matrix(1,0,0,-1,-170.079,113.386)"/>
<path style=" stroke:none;fill-rule:nonzero;fill:rgb(79.998779%,79.998779%,100%);fill-opacity:1;" d="M 75.566406 64.289062 C 75.566406 61.695312 73.460938 59.589844 70.867188 59.589844 C 68.273438 59.589844 66.171875 61.695312 66.171875 64.289062 C 66.171875 66.882812 68.273438 68.984375 70.867188 68.984375 C 73.460938 68.984375 75.566406 66.882812 75.566406 64.289062 Z M 75.566406 64.289062 "/>
<path style=" stroke:none;fill-rule:nonzero;fill:rgb(79.998779%,79.998779%,100%);fill-opacity:1;" d="M 103.910156 64.289062 C 103.910156 61.695312 101.808594 59.589844 99.214844 59.589844 C 96.621094 59.589844 94.519531 61.695312 94.519531 64.289062 C 94.519531 66.882812 96.621094 68.984375 99.214844 68.984375 C 101.808594 68.984375 103.910156 66.882812 103.910156 64.289062 Z M 103.910156 64.289062 "/>
<path style="fill:none;stroke-width:1.19553;stroke-linecap:butt;stroke-linejoin:round;stroke:rgb(100%,100%,100%);stroke-opacity:1;stroke-miterlimit:10;" d="M 276.379781 12.272719 L 283.469625 24.550062 L 276.379781 36.8235 L 283.469625 24.550062 L 311.813375 24.550062 L 318.903219 36.8235 L 311.813375 24.550062 L 318.903219 12.272719 " transform="matrix(1,0,0,-1,-170.079,113.386)"/>
<path style="fill:none;stroke-width:1.19553;stroke-linecap:butt;stroke-linejoin:round;stroke:rgb(94.119263%,19.607544%,0%);stroke-opacity:1;stroke-miterlimit:10;" d="M 283.469625 24.550062 L 289.137594 30.218031 " transform="matrix(1,0,0,-1,-170.079,113.386)"/>
<path style="fill:none;stroke-width:1.19553;stroke-linecap:butt;stroke-linejoin:round;stroke:rgb(94.119263%,19.607544%,0%);stroke-opacity:1;stroke-miterlimit:10;" d="M 311.813375 24.550062 L 317.48525 30.218031 " transform="matrix(1,0,0,-1,-170.079,113.386)"/>
<path style=" stroke:none;fill-rule:nonzero;fill:rgb(79.998779%,79.998779%,100%);fill-opacity:1;" d="M 118.085938 88.835938 C 118.085938 86.242188 115.984375 84.140625 113.390625 84.140625 C 110.796875 84.140625 108.691406 86.242188 108.691406 88.835938 C 108.691406 91.429688 110.796875 93.535156 113.390625 93.535156 C 115.984375 93.535156 118.085938 91.429688 118.085938 88.835938 Z M 118.085938 88.835938 "/>
<path style=" stroke:none;fill-rule:nonzero;fill:rgb(79.998779%,79.998779%,100%);fill-opacity:1;" d="M 146.433594 88.835938 C 146.433594 86.242188 144.328125 84.140625 141.734375 84.140625 C 139.140625 84.140625 137.039062 86.242188 137.039062 88.835938 C 137.039062 91.429688 139.140625 93.535156 141.734375 93.535156 C 144.328125 93.535156 146.433594 91.429688 146.433594 88.835938 Z M 146.433594 88.835938 "/>
<g clip-path="url(#clip4)" clip-rule="nonzero">
<path style="fill:none;stroke-width:1.19553;stroke-linecap:butt;stroke-linejoin:round;stroke:rgb(100%,100%,100%);stroke-opacity:1;stroke-miterlimit:10;" d="M 318.903219 -12.274156 L 325.989156 -0.00071875 L 318.903219 12.272719 L 325.989156 -0.00071875 L 354.336812 -0.00071875 L 361.42275 12.272719 L 354.336812 -0.00071875 L 361.42275 -12.274156 " transform="matrix(1,0,0,-1,-170.079,113.386)"/>
</g>
<path style="fill:none;stroke-width:1.19553;stroke-linecap:butt;stroke-linejoin:round;stroke:rgb(94.119263%,19.607544%,0%);stroke-opacity:1;stroke-miterlimit:10;" d="M 325.989156 -0.00071875 L 331.657125 5.671156 " transform="matrix(1,0,0,-1,-170.079,113.386)"/>
<path style=" stroke:none;fill-rule:nonzero;fill:rgb(79.998779%,79.998779%,100%);fill-opacity:1;" d="M 160.605469 113.386719 C 160.605469 110.792969 158.503906 108.691406 155.910156 108.691406 C 153.316406 108.691406 151.214844 110.792969 151.214844 113.386719 C 151.214844 115.980469 153.316406 118.082031 155.910156 118.082031 C 158.503906 118.082031 160.605469 115.980469 160.605469 113.386719 Z M 160.605469 113.386719 "/>
<path style="fill:none;stroke-width:1.19553;stroke-linecap:butt;stroke-linejoin:round;stroke:rgb(100%,100%,100%);stroke-opacity:1;stroke-miterlimit:10;" d="M 191.340719 110.471937 L 198.426656 122.745375 L 191.340719 135.018812 L 198.426656 122.745375 L 226.774312 122.745375 L 233.86025 135.018812 L 226.774312 122.745375 L 233.86025 110.471937 " transform="matrix(1,0,0,-1,-170.079,113.386)"/>
<path style="fill:none;stroke-width:1.19553;stroke-linecap:butt;stroke-linejoin:round;stroke:rgb(100%,100%,100%);stroke-opacity:1;stroke-miterlimit:10;" d="M 233.86025 85.921156 L 240.946187 98.194594 L 233.86025 110.471937 L 240.946187 98.194594 L 269.293844 98.194594 L 276.379781 110.471937 L 269.293844 98.194594 L 276.379781 85.921156 " transform="matrix(1,0,0,-1,-170.079,113.386)"/>
<path style="fill:none;stroke-width:1.19553;stroke-linecap:butt;stroke-linejoin:round;stroke:rgb(94.119263%,19.607544%,0%);stroke-opacity:1;stroke-miterlimit:10;" d="M 240.946187 98.194594 L 246.618062 103.866469 " transform="matrix(1,0,0,-1,-170.079,113.386)"/>
<path style="fill:none;stroke-width:1.19553;stroke-linecap:butt;stroke-linejoin:round;stroke:rgb(94.119263%,19.607544%,0%);stroke-opacity:1;stroke-miterlimit:10;" d="M 269.293844 98.194594 L 274.965719 103.866469 " transform="matrix(1,0,0,-1,-170.079,113.386)"/>
<path style=" stroke:none;fill-rule:nonzero;fill:rgb(79.998779%,79.998779%,100%);fill-opacity:1;" d="M 75.566406 15.191406 C 75.566406 12.597656 73.460938 10.492188 70.867188 10.492188 C 68.273438 10.492188 66.171875 12.597656 66.171875 15.191406 C 66.171875 17.785156 68.273438 19.886719 70.867188 19.886719 C 73.460938 19.886719 75.566406 17.785156 75.566406 15.191406 Z M 75.566406 15.191406 "/>
<path style=" stroke:none;fill-rule:nonzero;fill:rgb(79.998779%,79.998779%,100%);fill-opacity:1;" d="M 103.910156 15.191406 C 103.910156 12.597656 101.808594 10.492188 99.214844 10.492188 C 96.621094 10.492188 94.519531 12.597656 94.519531 15.191406 C 94.519531 17.785156 96.621094 19.886719 99.214844 19.886719 C 101.808594 19.886719 103.910156 17.785156 103.910156 15.191406 Z M 103.910156 15.191406 "/>
<path style="fill:none;stroke-width:1.19553;stroke-linecap:butt;stroke-linejoin:round;stroke:rgb(100%,100%,100%);stroke-opacity:1;stroke-miterlimit:10;" d="M 276.379781 61.374281 L 283.469625 73.647719 L 276.379781 85.921156 L 283.469625 73.647719 L 311.813375 73.647719 L 318.903219 85.921156 L 311.813375 73.647719 L 318.903219 61.374281 " transform="matrix(1,0,0,-1,-170.079,113.386)"/>
<path style="fill:none;stroke-width:1.19553;stroke-linecap:butt;stroke-linejoin:round;stroke:rgb(94.119263%,19.607544%,0%);stroke-opacity:1;stroke-miterlimit:10;" d="M 283.469625 73.647719 L 289.137594 79.315687 " transform="matrix(1,0,0,-1,-170.079,113.386)"/>
<path style="fill:none;stroke-width:1.19553;stroke-linecap:butt;stroke-linejoin:round;stroke:rgb(94.119263%,19.607544%,0%);stroke-opacity:1;stroke-miterlimit:10;" d="M 311.813375 73.647719 L 317.48525 79.315687 " transform="matrix(1,0,0,-1,-170.079,113.386)"/>
<path style=" stroke:none;fill-rule:nonzero;fill:rgb(79.998779%,79.998779%,100%);fill-opacity:1;" d="M 118.085938 39.738281 C 118.085938 37.144531 115.984375 35.042969 113.390625 35.042969 C 110.796875 35.042969 108.691406 37.144531 108.691406 39.738281 C 108.691406 42.332031 110.796875 44.433594 113.390625 44.433594 C 115.984375 44.433594 118.085938 42.332031 118.085938 39.738281 Z M 118.085938 39.738281 "/>
<path style=" stroke:none;fill-rule:nonzero;fill:rgb(79.998779%,79.998779%,100%);fill-opacity:1;" d="M 146.433594 39.738281 C 146.433594 37.144531 144.328125 35.042969 141.734375 35.042969 C 139.140625 35.042969 137.039062 37.144531 137.039062 39.738281 C 137.039062 42.332031 139.140625 44.433594 141.734375 44.433594 C 144.328125 44.433594 146.433594 42.332031 146.433594 39.738281 Z M 146.433594 39.738281 "/>
<g clip-path="url(#clip5)" clip-rule="nonzero">
<path style="fill:none;stroke-width:1.19553;stroke-linecap:butt;stroke-linejoin:round;stroke:rgb(100%,100%,100%);stroke-opacity:1;stroke-miterlimit:10;" d="M 318.903219 36.8235 L 325.989156 49.096937 L 318.903219 61.374281 L 325.989156 49.096937 L 354.336812 49.096937 L 361.42275 61.374281 L 354.336812 49.096937 L 361.42275 36.8235 " transform="matrix(1,0,0,-1,-170.079,113.386)"/>
</g>
<path style="fill:none;stroke-width:1.19553;stroke-linecap:butt;stroke-linejoin:round;stroke:rgb(94.119263%,19.607544%,0%);stroke-opacity:1;stroke-miterlimit:10;" d="M 325.989156 49.096937 L 331.657125 54.768812 " transform="matrix(1,0,0,-1,-170.079,113.386)"/>
<path style=" stroke:none;fill-rule:nonzero;fill:rgb(79.998779%,79.998779%,100%);fill-opacity:1;" d="M 160.605469 64.289062 C 160.605469 61.695312 158.503906 59.589844 155.910156 59.589844 C 153.316406 59.589844 151.214844 61.695312 151.214844 64.289062 C 151.214844 66.882812 153.316406 68.984375 155.910156 68.984375 C 158.503906 68.984375 160.605469 66.882812 160.605469 64.289062 Z M 160.605469 64.289062 "/>
<path style="fill:none;stroke-width:1.19553;stroke-linecap:butt;stroke-linejoin:round;stroke:rgb(100%,100%,100%);stroke-opacity:1;stroke-miterlimit:10;" d="M 276.379781 110.471937 L 283.469625 122.745375 L 276.379781 135.018812 L 283.469625 122.745375 L 311.813375 122.745375 L 318.903219 135.018812 L 311.813375 122.745375 L 318.903219 110.471937 " transform="matrix(1,0,0,-1,-170.079,113.386)"/>
<g clip-path="url(#clip6)" clip-rule="nonzero">
<path style="fill:none;stroke-width:1.19553;stroke-linecap:butt;stroke-linejoin:round;stroke:rgb(100%,100%,100%);stroke-opacity:1;stroke-miterlimit:10;" d="M 318.903219 85.921156 L 325.989156 98.194594 L 318.903219 110.471937 L 325.989156 98.194594 L 354.336812 98.194594 L 361.42275 110.471937 L 354.336812 98.194594 L 361.42275 85.921156 " transform="matrix(1,0,0,-1,-170.079,113.386)"/>
</g>
<path style="fill:none;stroke-width:1.19553;stroke-linecap:butt;stroke-linejoin:round;stroke:rgb(94.119263%,19.607544%,0%);stroke-opacity:1;stroke-miterlimit:10;" d="M 325.989156 98.194594 L 331.657125 103.866469 " transform="matrix(1,0,0,-1,-170.079,113.386)"/>
<path style=" stroke:none;fill-rule:nonzero;fill:rgb(79.998779%,79.998779%,100%);fill-opacity:1;" d="M 160.605469 15.191406 C 160.605469 12.597656 158.503906 10.492188 155.910156 10.492188 C 153.316406 10.492188 151.214844 12.597656 151.214844 15.191406 C 151.214844 17.785156 153.316406 19.886719 155.910156 19.886719 C 158.503906 19.886719 160.605469 17.785156 160.605469 15.191406 Z M 160.605469 15.191406 "/>
</g>
</svg>
